<svg xmlns="http://www.w3.org/2000/svg" version="1.1" xmlns:xlink="http://www.w3.org/1999/xlink" xmlns:svgjs="http://svgjs.com/svgjs" width="1000" height="1000"><rect width="1000" height="1000" rx="200" ry="200" fill="#ffffff"></rect><g transform="matrix(1,0,0,1,0,0)"><svg xmlns="http://www.w3.org/2000/svg" version="1.1" xmlns:xlink="http://www.w3.org/1999/xlink" xmlns:svgjs="http://svgjs.com/svgjs" width="800px" height="800px"><svg fill="#000000" width="800px" height="800px" viewBox="0 0 256 256" id="Flat" xmlns="http://www.w3.org/2000/svg">
  <path d="M117.31494,133.97949l-72,64a8.00018,8.00018,0,0,1-10.62988-11.959L99.9585,128,34.68506,69.97949a8.00018,8.00018,0,0,1,10.62988-11.959l72,64a8.00054,8.00054,0,0,1,0,11.959ZM215.99414,184h-96a8,8,0,0,0,0,16h96a8,8,0,1,0,0-16Z"></path>
</svg></svg></g></svg>